# xmcd CD database file
#
# Track frame offsets:
#	150
#	17208
#	32415
#	46740
#	61913
#	85829
#
# Disc length: 1352 seconds
#
# Revision: 1
# Processed by: cddbd v1.5.1PL2 Copyright (c) Steve Scherf et al.
# Submitted via: jetAudio 5
#
DISCID=3c054606
DTITLE=Regina Spektor - Begin to Hope [Side 1]
DYEAR=1900
DGENRE=
TTITLE0=Fidelity
TTITLE1=Better
TTITLE2=Samson
TTITLE3=On the Radio
TTITLE4=Field Below
TTITLE5=Hotel Song
EXTD=
EXTT0=
EXTT1=
EXTT2=
EXTT3=
EXTT4=
EXTT5=
PLAYORDER=
